HIERARCHY
ROOT Hips
{
  OFFSET 25.064 22.256 -262.020
  CHANNELS 6 Xposition Yposition Zposition Zrotation Xrotation Yrotation
  JOINT LeftUpLeg
  {
    OFFSET 7.007 -5.135 4.205
    CHANNELS 6 Xposition Yposition Zposition Zrotation Xrotation Yrotation
    JOINT LeftLeg
    {
      OFFSET 0.000 -45.972 0.000
      CHANNELS 6 Xposition Yposition Zposition Zrotation Xrotation Yrotation
      JOINT LeftFoot
      {
        OFFSET -0.000 -37.014 -0.000
        CHANNELS 6 Xposition Yposition Zposition Zrotation Xrotation Yrotation
        End Site
        {
          OFFSET 0.000 -7.878 4.548
        }
      }
    }
  }
  JOINT RightUpLeg
  {
    OFFSET -6.840 -4.972 5.038
    CHANNELS 6 Xposition Yposition Zposition Zrotation Xrotation Yrotation
    JOINT RightLeg
    {
      OFFSET 0.000 -45.589 0.000
      CHANNELS 6 Xposition Yposition Zposition Zrotation Xrotation Yrotation
      JOINT RightFoot
      {
        OFFSET -0.000 -37.185 -0.000
        CHANNELS 6 Xposition Yposition Zposition Zrotation Xrotation Yrotation
        End Site
        {
          OFFSET 0.000 -7.810 4.509
        }
      }
    }
  }
  JOINT Spine
  {
    OFFSET 0.000 4.931 -4.931
    CHANNELS 6 Xposition Yposition Zposition Zrotation Xrotation Yrotation
    JOINT LeftShoulder
    {
      OFFSET -0.000 31.836 0.000
      CHANNELS 6 Xposition Yposition Zposition Zrotation Xrotation Yrotation
      JOINT LeftArm
      {
        OFFSET 15.893 0.000 -0.000
        CHANNELS 6 Xposition Yposition Zposition Zrotation Xrotation Yrotation
        JOINT LeftForeArm
        {
          OFFSET 21.557 0.000 0.000
          CHANNELS 6 Xposition Yposition Zposition Zrotation Xrotation Yrotation
          JOINT LeftHand
          {
            OFFSET 23.856 0.000 -0.000
            CHANNELS 6 Xposition Yposition Zposition Zrotation Xrotation Yrotation
            JOINT LeftHandThumb1
            {
            OFFSET 4.970 -0.620 3.390
            CHANNELS 6 Xposition Yposition Zposition Zrotation Xrotation Yrotation
              JOINT LeftHandThumb2
              {
              OFFSET 2.150 -0.000 0.000
              CHANNELS 6 Xposition Yposition Zposition Zrotation Xrotation Yrotation
                JOINT LeftHandThumb3
                {
                OFFSET 2.200 -0.000 0.000
                CHANNELS 6 Xposition Yposition Zposition Zrotation Xrotation Yrotation
                  JOINT LeftHandThumb4
                  {
                  OFFSET 1.700 -0.000 0.000
                  CHANNELS 6 Xposition Yposition Zposition Zrotation Xrotation Yrotation
                  }
                }
              }
            }
            JOINT LeftHandIndex1
            {
            OFFSET 8.730 0.680 2.070
            CHANNELS 6 Xposition Yposition Zposition Zrotation Xrotation Yrotation
              JOINT LeftHandIndex2
              {
              OFFSET 2.670 -0.000 0.000
              CHANNELS 6 Xposition Yposition Zposition Zrotation Xrotation Yrotation
                JOINT LeftHandIndex3
                {
                OFFSET 2.130 -0.000 0.000
                CHANNELS 6 Xposition Yposition Zposition Zrotation Xrotation Yrotation
                  JOINT LeftHandIndex4
                  {
                  OFFSET 1.800 -0.000 0.000
                  CHANNELS 6 Xposition Yposition Zposition Zrotation Xrotation Yrotation
                  }
                }
              }
            }
            JOINT LeftHandMiddle1
            {
            OFFSET 9.220 0.670 0.550
            CHANNELS 6 Xposition Yposition Zposition Zrotation Xrotation Yrotation
              JOINT LeftHandMiddle2
              {
              OFFSET 2.660 -0.000 0.000
              CHANNELS 6 Xposition Yposition Zposition Zrotation Xrotation Yrotation
                JOINT LeftHandMiddle3
                {
                OFFSET 2.280 -0.000 0.000
                CHANNELS 6 Xposition Yposition Zposition Zrotation Xrotation Yrotation
                  JOINT LeftHandMiddle4
                  {
                  OFFSET 1.500 -0.000 0.000
                  CHANNELS 6 Xposition Yposition Zposition Zrotation Xrotation Yrotation
                  }
                }
              }
            }
            JOINT LeftHandRing1
            {
            OFFSET 9.250 0.670 -1.130
            CHANNELS 6 Xposition Yposition Zposition Zrotation Xrotation Yrotation
              JOINT LeftHandRing2
              {
              OFFSET 2.470 -0.000 0.000
              CHANNELS 6 Xposition Yposition Zposition Zrotation Xrotation Yrotation
                JOINT LeftHandRing3
                {
                OFFSET 2.210 -0.000 0.000
                CHANNELS 6 Xposition Yposition Zposition Zrotation Xrotation Yrotation
                  JOINT LeftHandRing4
                  {
                  OFFSET 1.800 -0.000 0.000
                  CHANNELS 6 Xposition Yposition Zposition Zrotation Xrotation Yrotation
                  }
                }
              }
            }
            JOINT LeftHandPinky1
            {
            OFFSET 9.350 0.660 -2.720
            CHANNELS 6 Xposition Yposition Zposition Zrotation Xrotation Yrotation
              JOINT LeftHandPinky2
              {
              OFFSET 1.630 -0.000 0.000
              CHANNELS 6 Xposition Yposition Zposition Zrotation Xrotation Yrotation
                JOINT LeftHandPinky3
                {
                OFFSET 1.710 -0.000 0.000
                CHANNELS 6 Xposition Yposition Zposition Zrotation Xrotation Yrotation
                  JOINT LeftHandPinky4
                  {
                  OFFSET 1.800 -0.000 0.000
                  CHANNELS 6 Xposition Yposition Zposition Zrotation Xrotation Yrotation
                  }
                }
              }
            }
          }
        }
      }
    }
    JOINT RightShoulder
    {
      OFFSET -0.000 31.836 0.000
      CHANNELS 6 Xposition Yposition Zposition Zrotation Xrotation Yrotation
      JOINT RightArm
      {
        OFFSET -17.786 0.000 -0.000
        CHANNELS 6 Xposition Yposition Zposition Zrotation Xrotation Yrotation
        JOINT RightForeArm
        {
          OFFSET -20.765 0.000 0.000
          CHANNELS 6 Xposition Yposition Zposition Zrotation Xrotation Yrotation
          JOINT RightHand
          {
            OFFSET -22.946 0.000 -0.000
            CHANNELS 6 Xposition Yposition Zposition Zrotation Xrotation Yrotation
            JOINT RightHandThumb1
            {
            OFFSET -4.970 -0.620 3.390
            CHANNELS 6 Xposition Yposition Zposition Zrotation Xrotation Yrotation
              JOINT RightHandThumb2
              {
              OFFSET -2.150 0.000 0.000
              CHANNELS 6 Xposition Yposition Zposition Zrotation Xrotation Yrotation
                JOINT RightHandThumb3
                {
                OFFSET -2.200 0.000 0.000
                CHANNELS 6 Xposition Yposition Zposition Zrotation Xrotation Yrotation
                  JOINT RightHandThumb4
                  {
                  OFFSET -1.700 0.000 0.000
                  CHANNELS 6 Xposition Yposition Zposition Zrotation Xrotation Yrotation
                  }
                }
              }
            }
            JOINT RightHandIndex1
            {
            OFFSET -8.730 0.680 2.070
            CHANNELS 6 Xposition Yposition Zposition Zrotation Xrotation Yrotation
              JOINT RightHandIndex2
              {
              OFFSET -2.670 0.000 0.000
              CHANNELS 6 Xposition Yposition Zposition Zrotation Xrotation Yrotation
                JOINT RightHandIndex3
                {
                OFFSET -2.130 0.000 0.000
                CHANNELS 6 Xposition Yposition Zposition Zrotation Xrotation Yrotation
                  JOINT RightHandIndex4
                  {
                  OFFSET -1.800 0.000 0.000
                  CHANNELS 6 Xposition Yposition Zposition Zrotation Xrotation Yrotation
                  }
                }
              }
            }
            JOINT RightHandMiddle1
            {
            OFFSET -9.220 0.670 0.550
            CHANNELS 6 Xposition Yposition Zposition Zrotation Xrotation Yrotation
              JOINT RightHandMiddle2
              {
              OFFSET -2.660 0.000 0.000
              CHANNELS 6 Xposition Yposition Zposition Zrotation Xrotation Yrotation
                JOINT RightHandMiddle3
                {
                OFFSET -2.280 0.000 0.000
                CHANNELS 6 Xposition Yposition Zposition Zrotation Xrotation Yrotation
                  JOINT RightHandMiddle4
                  {
                  OFFSET -1.500 0.000 0.000
                  CHANNELS 6 Xposition Yposition Zposition Zrotation Xrotation Yrotation
                  }
                }
              }
            }
            JOINT RightHandRing1
            {
            OFFSET -9.250 0.670 -1.130
            CHANNELS 6 Xposition Yposition Zposition Zrotation Xrotation Yrotation
              JOINT RightHandRing2
              {
              OFFSET -2.470 0.000 0.000
              CHANNELS 6 Xposition Yposition Zposition Zrotation Xrotation Yrotation
                JOINT RightHandRing3
                {
                OFFSET -2.210 0.000 0.000
                CHANNELS 6 Xposition Yposition Zposition Zrotation Xrotation Yrotation
                  JOINT RightHandRing4
                  {
                  OFFSET -1.800 0.000 0.000
                  CHANNELS 6 Xposition Yposition Zposition Zrotation Xrotation Yrotation
                  }
                }
              }
            }
            JOINT RightHandPinky1
            {
            OFFSET -9.350 0.660 -2.720
            CHANNELS 6 Xposition Yposition Zposition Zrotation Xrotation Yrotation
              JOINT RightHandPinky2
              {
              OFFSET -1.630 0.000 0.000
              CHANNELS 6 Xposition Yposition Zposition Zrotation Xrotation Yrotation
                JOINT RightHandPinky3
                {
                OFFSET -1.710 0.000 0.000
                CHANNELS 6 Xposition Yposition Zposition Zrotation Xrotation Yrotation
                  JOINT RightHandPinky4
                  {
                  OFFSET -1.800 0.000 0.000
                  CHANNELS 6 Xposition Yposition Zposition Zrotation Xrotation Yrotation
                  }
                }
              }
            }
          }
        }
      }
    }
    JOINT Neck
    {
      OFFSET -0.000 31.836 0.000
      CHANNELS 6 Xposition Yposition Zposition Zrotation Xrotation Yrotation
      JOINT Head
      {
        OFFSET -0.000 20.860 -0.000
        CHANNELS 6 Xposition Yposition Zposition Zrotation Xrotation Yrotation
        End Site
        {
          OFFSET -0.000 0.083 -0.000
        }
      }
    }
  }
}
MOTION
Frames:	6
Frame Time:	0.0333333
23.6734 17.9987 -273.595 9.26984 27.2818 -27.2306 6.80673 -5.37069 3.62101 5.31636 -26.9379 0.33684 1.19209e-05 -47.3233 2.38419e-05 0.579002 -5.66813 0.0571871 -1.19209e-05 -32.1015 -2.38419e-05 6.51126 -9.39551 4.75303 -6.57691 -5.77036 3.28121 5.33789 -37.5441 -1.09375 -2.38419e-05 -44.0635 4.76837e-05 1.14859 23.643 5.59202e-06 0 -32.6719 -4.76837e-05 -6.8265 -13.5093 -5.41779 1.19209e-05 5.37307 -5.37307 0.688133 -27.6095 0.65895 -1.19209e-05 31.8366 0 -20.7145 1.70755e-05 -1.41032 15.6286 7.45058e-06 0 -40.3483 35.953 -6.21265 22.7839 2.38419e-05 -1.19209e-05 6.85216e-07 3.37441e-06 -112.957 23.7136 -2.38419e-05 2.38419e-05 8.47039 0.0582674 3.77759 0.0062 0.0497 0.0339 0 0 0 0 0.0215 0 0 0 0 0 0.022 0 0 0 0 0 0.017 0 0 0 0 -0.0068 0.0873 0.0207 0 0 0 0 0.0267 0 0 0 0 0 0.0213 0 0 0 0 0 0.018 0 0 0 0 -0.0067 0.0922 0.0055 0 0 0 0 0.0266 0 0 0 0 0 0.0228 0 0 0 0 0 0.015 0 0 0 0 -0.0067 0.0925 -0.0113 0 0 0 0 0.0247 0 0 0 0 0 0.0221 0 0 0 0 0 0.018 0 0 0 0 -0.0066 0.0935 -0.0272 0 0 0 0 0.0163 0 0 0 0 0 0.0171 0 0 0 0 0 0.018 0 0 0 0 -1.19209e-05 31.8366 0 23.046 -4.26887e-06 1.49742 -14.7195 0 7.15256e-05 56.3116 4.01957 -12.3672 -20.8303 5.96046e-06 -7.15256e-05 0.00035509 8.43676e-06 91.0844 -19.52 1.19209e-05 1.49012e-05 14.9385 1.43399 20.9018 -0.0062 0.0497 0.0339 0 0 0 0 0.0215 0 0 0 0 0 0.022 0 0 0 0 0 0.017 0 0 0 0 0.0068 0.0873 0.0207 0 0 0 0 0.0267 0 0 0 0 0 0.0213 0 0 0 0 0 0.018 0 0 0 0 0.0067 0.0922 0.0055 0 0 0 0 0.0266 0 0 0 0 0 0.0228 0 0 0 0 0 0.015 0 0 0 0 0.0067 0.0925 -0.0113 0 0 0 0 0.0247 0 0 0 0 0 0.0221 0 0 0 0 0 0.018 0 0 0 0 0.0066 0.0935 -0.0272 0 0 0 0 0.0163 0 0 0 0 0 0.0171 0 0 0 0 0 0.018 0 0 0 0 -1.19209e-05 31.8366 0 7.38432 2.1256 -0.275417 5.96046e-06 22.4758 4.76837e-05 9.63163e-06 -9.71167e-06 0 
23.6734 17.9987 -273.595 9.26984 27.2818 -27.2306 6.80673 -5.37069 3.62101 5.31636 -26.9379 0.33684 1.19209e-05 -47.3233 2.38419e-05 0.579002 -5.66813 0.0571871 -1.19209e-05 -32.1015 -2.38419e-05 6.51126 -9.39551 4.75303 -6.57691 -5.77036 3.28121 5.33789 -37.5441 -1.09375 -2.38419e-05 -44.0635 4.76837e-05 1.14859 23.643 5.59202e-06 0 -32.6719 -4.76837e-05 -6.8265 -13.5093 -5.41779 1.19209e-05 5.37307 -5.37307 0.688133 -27.6095 0.65895 -1.19209e-05 31.8366 0 -20.7145 1.70755e-05 -1.41032 15.6286 7.45058e-06 0 -40.3483 35.953 -6.21265 22.7839 2.38419e-05 -1.19209e-05 6.85216e-07 3.37441e-06 -112.957 23.7136 -2.38419e-05 2.38419e-05 8.47039 0.0582674 3.77759 0.0062 0.0497 0.0339 0 0 0 0 0.0215 0 0 0 0 0 0.022 0 0 0 0 0 0.017 0 0 0 0 -0.0068 0.0873 0.0207 0 0 0 0 0.0267 0 0 0 0 0 0.0213 0 0 0 0 0 0.018 0 0 0 0 -0.0067 0.0922 0.0055 0 0 0 0 0.0266 0 0 0 0 0 0.0228 0 0 0 0 0 0.015 0 0 0 0 -0.0067 0.0925 -0.0113 0 0 0 0 0.0247 0 0 0 0 0 0.0221 0 0 0 0 0 0.018 0 0 0 0 -0.0066 0.0935 -0.0272 0 0 0 0 0.0163 0 0 0 0 0 0.0171 0 0 0 0 0 0.018 0 0 0 0 -1.19209e-05 31.8366 0 23.046 -4.26887e-06 1.49742 -14.7195 0 7.15256e-05 56.3116 4.01957 -12.3672 -20.8303 5.96046e-06 -7.15256e-05 0.00035509 8.43676e-06 91.0844 -19.52 1.19209e-05 1.49012e-05 14.9385 1.43399 20.9018 -0.0062 0.0497 0.0339 0 0 0 0 0.0215 0 0 0 0 0 0.022 0 0 0 0 0 0.017 0 0 0 0 0.0068 0.0873 0.0207 0 0 0 0 0.0267 0 0 0 0 0 0.0213 0 0 0 0 0 0.018 0 0 0 0 0.0067 0.0922 0.0055 0 0 0 0 0.0266 0 0 0 0 0 0.0228 0 0 0 0 0 0.015 0 0 0 0 0.0067 0.0925 -0.0113 0 0 0 0 0.0247 0 0 0 0 0 0.0221 0 0 0 0 0 0.018 0 0 0 0 0.0066 0.0935 -0.0272 0 0 0 0 0.0163 0 0 0 0 0 0.0171 0 0 0 0 0 0.018 0 0 0 0 -1.19209e-05 31.8366 0 7.38432 2.1256 -0.275417 5.96046e-06 22.4758 4.76837e-05 9.63163e-06 -9.71167e-06 0 
23.7967 17.9307 -273.68 9.10823 27.7764 -26.7225 6.75855 -5.30858 3.64606 5.48057 -27.4654 0.451768 0 -47.2126 -2.38419e-05 0.455357 -5.77184 0.0457947 1.78814e-05 -32.0376 2.38419e-05 5.53506 -8.70313 4.03284 -6.53543 -5.71786 3.31581 5.26159 -37.9105 -1.17082 0 -44.1273 -2.38419e-05 1.38583 23.6333 -3.72774e-06 -1.19209e-05 -32.4352 -2.38419e-05 -5.37121 -19.2814 -4.63544 0 5.37049 -5.37043 0.671722 -28.2105 0.89267 -5.96046e-05 31.8366 -2.38419e-05 -20.3067 1.19528e-05 -1.29249 15.6116 7.45058e-06 4.76837e-05 -40.4095 36.7471 -7.75075 22.7601 -2.38419e-05 -1.19209e-05 1.66442e-05 -3.31094e-06 -112.501 24.2336 -2.38419e-05 -1.19209e-05 -1.50058 -0.149698 4.72693 0.0062 0.0497 0.0339 0 0 0 0 0.0215 0 0 0 0 0 0.022 0 0 0 0 0 0.017 0 0 0 0 -0.0068 0.0873 0.0207 0 0 0 0 0.0267 0 0 0 0 0 0.0213 0 0 0 0 0 0.018 0 0 0 0 -0.0067 0.0922 0.0055 0 0 0 0 0.0266 0 0 0 0 0 0.0228 0 0 0 0 0 0.015 0 0 0 0 -0.0067 0.0925 -0.0113 0 0 0 0 0.0247 0 0 0 0 0 0.0221 0 0 0 0 0 0.018 0 0 0 0 -0.0066 0.0935 -0.0272 0 0 0 0 0.0163 0 0 0 0 0 0.0171 0 0 0 0 0 0.018 0 0 0 0 -5.96046e-05 31.8366 -2.38419e-05 24.3549 -2.56132e-06 1.37285 -14.6979 -2.38419e-05 7.15256e-05 55.1381 2.48764 -11.8551 -20.9276 -1.78814e-05 2.38419e-05 3.40337e-07 3.41509e-06 78.6179 -18.9634 5.96046e-06 -3.57628e-05 16.8496 0.947404 23.0673 -0.0062 0.0497 0.0339 0 0 0 0 0.0215 0 0 0 0 0 0.022 0 0 0 0 0 0.017 0 0 0 0 0.0068 0.0873 0.0207 0 0 0 0 0.0267 0 0 0 0 0 0.0213 0 0 0 0 0 0.018 0 0 0 0 0.0067 0.0922 0.0055 0 0 0 0 0.0266 0 0 0 0 0 0.0228 0 0 0 0 0 0.015 0 0 0 0 0.0067 0.0925 -0.0113 0 0 0 0 0.0247 0 0 0 0 0 0.0221 0 0 0 0 0 0.018 0 0 0 0 0.0066 0.0935 -0.0272 0 0 0 0 0.0163 0 0 0 0 0 0.0171 0 0 0 0 0 0.018 0 0 0 0 -5.96046e-05 31.8366 -2.38419e-05 6.79736 2.41422 -0.287678 2.38419e-05 22.5575 -2.38419e-05 1.10457e-05 -8.8579e-06 0 
23.7967 17.9307 -273.68 9.10823 27.7764 -26.7225 6.75855 -5.30858 3.64606 5.48057 -27.4654 0.451768 0 -47.2126 -2.38419e-05 0.455357 -5.77184 0.0457947 1.78814e-05 -32.0376 2.38419e-05 5.53506 -8.70313 4.03284 -6.53543 -5.71786 3.31581 5.26159 -37.9105 -1.17082 0 -44.1273 -2.38419e-05 1.38583 23.6333 -3.72774e-06 -1.19209e-05 -32.4352 -2.38419e-05 -5.37121 -19.2814 -4.63544 0 5.37049 -5.37043 0.671722 -28.2105 0.89267 -5.96046e-05 31.8366 -2.38419e-05 -20.3067 1.19528e-05 -1.29249 15.6116 7.45058e-06 4.76837e-05 -40.4095 36.7471 -7.75075 22.7601 -2.38419e-05 -1.19209e-05 1.66442e-05 -3.31094e-06 -112.501 24.2336 -2.38419e-05 -1.19209e-05 -1.50058 -0.149698 4.72693 0.0062 0.0497 0.0339 0 0 0 0 0.0215 0 0 0 0 0 0.022 0 0 0 0 0 0.017 0 0 0 0 -0.0068 0.0873 0.0207 0 0 0 0 0.0267 0 0 0 0 0 0.0213 0 0 0 0 0 0.018 0 0 0 0 -0.0067 0.0922 0.0055 0 0 0 0 0.0266 0 0 0 0 0 0.0228 0 0 0 0 0 0.015 0 0 0 0 -0.0067 0.0925 -0.0113 0 0 0 0 0.0247 0 0 0 0 0 0.0221 0 0 0 0 0 0.018 0 0 0 0 -0.0066 0.0935 -0.0272 0 0 0 0 0.0163 0 0 0 0 0 0.0171 0 0 0 0 0 0.018 0 0 0 0 -5.96046e-05 31.8366 -2.38419e-05 24.3549 -2.56132e-06 1.37285 -14.6979 -2.38419e-05 7.15256e-05 55.1381 2.48764 -11.8551 -20.9276 -1.78814e-05 2.38419e-05 3.40337e-07 3.41509e-06 78.6179 -18.9634 5.96046e-06 -3.57628e-05 16.8496 0.947404 23.0673 -0.0062 0.0497 0.0339 0 0 0 0 0.0215 0 0 0 0 0 0.022 0 0 0 0 0 0.017 0 0 0 0 0.0068 0.0873 0.0207 0 0 0 0 0.0267 0 0 0 0 0 0.0213 0 0 0 0 0 0.018 0 0 0 0 0.0067 0.0922 0.0055 0 0 0 0 0.0266 0 0 0 0 0 0.0228 0 0 0 0 0 0.015 0 0 0 0 0.0067 0.0925 -0.0113 0 0 0 0 0.0247 0 0 0 0 0 0.0221 0 0 0 0 0 0.018 0 0 0 0 0.0066 0.0935 -0.0272 0 0 0 0 0.0163 0 0 0 0 0 0.0171 0 0 0 0 0 0.018 0 0 0 0 -5.96046e-05 31.8366 -2.38419e-05 6.79736 2.41422 -0.287678 2.38419e-05 22.5575 -2.38419e-05 1.10457e-05 -8.8579e-06 0 
23.8932 17.9241 -273.759 8.87766 28.0415 -26.2003 6.73031 -5.26762 3.65582 5.58278 -27.7582 0.501173 -1.19209e-05 -47.2202 -4.76837e-05 0.418264 -5.86851 0.0427677 -3.57628e-05 -32.0077 -2.38419e-05 4.82136 -8.18313 3.50746 -6.51021 -5.68619 3.32778 5.18327 -38.251 -1.2677 0 -44.1306 -2.38419e-05 1.52002 23.9403 3.73655e-06 1.19209e-05 -32.3985 4.76837e-05 -5.45379 -18.1367 -4.64646 2.38419e-05 5.3616 -5.36156 0.671065 -28.5036 0.99968 0 31.8366 -7.15256e-05 -20.1663 1.53679e-05 -1.30949 15.5921 1.49012e-05 0.000119209 -40.2665 37.2737 -8.73247 22.714 -2.38419e-05 -5.96046e-05 6.3756e-07 3.25962e-06 -112.134 24.5058 2.38419e-05 -1.19209e-05 -4.64785 -0.186122 3.50129 0.0062 0.0497 0.0339 0 0 0 0 0.0215 0 0 0 0 0 0.022 0 0 0 0 0 0.017 0 0 0 0 -0.0068 0.0873 0.0207 0 0 0 0 0.0267 0 0 0 0 0 0.0213 0 0 0 0 0 0.018 0 0 0 0 -0.0067 0.0922 0.0055 0 0 0 0 0.0266 0 0 0 0 0 0.0228 0 0 0 0 0 0.015 0 0 0 0 -0.0067 0.0925 -0.0113 0 0 0 0 0.0247 0 0 0 0 0 0.0221 0 0 0 0 0 0.018 0 0 0 0 -0.0066 0.0935 -0.0272 0 0 0 0 0.0163 0 0 0 0 0 0.0171 0 0 0 0 0 0.018 0 0 0 0 0 31.8366 -7.15256e-05 25.0032 -8.96462e-06 1.39033 -14.6853 -5.96046e-06 7.15256e-05 54.4198 2.28835 -12.3622 -20.9579 -1.78814e-05 -4.76837e-05 1.53787e-05 1.70755e-06 73.6149 -18.9078 -1.19209e-05 2.38419e-05 18.6086 0.938179 27.5272 -0.0062 0.0497 0.0339 0 0 0 0 0.0215 0 0 0 0 0 0.022 0 0 0 0 0 0.017 0 0 0 0 0.0068 0.0873 0.0207 0 0 0 0 0.0267 0 0 0 0 0 0.0213 0 0 0 0 0 0.018 0 0 0 0 0.0067 0.0922 0.0055 0 0 0 0 0.0266 0 0 0 0 0 0.0228 0 0 0 0 0 0.015 0 0 0 0 0.0067 0.0925 -0.0113 0 0 0 0 0.0247 0 0 0 0 0 0.0221 0 0 0 0 0 0.018 0 0 0 0 0.0066 0.0935 -0.0272 0 0 0 0 0.0163 0 0 0 0 0 0.0171 0 0 0 0 0 0.018 0 0 0 0 0 31.8366 -7.15256e-05 6.47433 2.52381 -0.28632 0 22.6566 0 9.76504e-06 -9.28479e-06 -1.70755e-06 
23.9553 17.9741 -273.847 8.89401 28.109 -26.2081 6.72007 -5.26843 3.63131 5.52919 -27.9381 0.798235 1.78814e-05 -47.517 0 0.473056 -6.01521 0.0495715 -1.78814e-05 -31.9927 0 4.50574 -7.89898 3.26517 -6.48949 -5.64587 3.36351 5.16726 -38.4925 -0.962949 1.19209e-05 -44.1511 2.38419e-05 1.52734 24.1823 -5.61542e-06 -1.19209e-05 -32.412 2.38419e-05 -5.2784 -18.942 -4.56032 5.96046e-06 5.34855 -5.34847 0.713162 -28.6342 0.977435 5.96046e-06 31.8366 0 -20.2357 1.45142e-05 -1.00862 15.6216 -2.98023e-06 0 -39.977 37.4678 -9.41935 22.6885 4.76837e-05 1.19209e-05 1.20508e-05 -8.32073e-06 -111.896 24.6543 2.38419e-05 1.19209e-05 -5.58786 -0.15722 2.63123 0.0062 0.0497 0.0339 0 0 0 0 0.0215 0 0 0 0 0 0.022 0 0 0 0 0 0.017 0 0 0 0 -0.0068 0.0873 0.0207 0 0 0 0 0.0267 0 0 0 0 0 0.0213 0 0 0 0 0 0.018 0 0 0 0 -0.0067 0.0922 0.0055 0 0 0 0 0.0266 0 0 0 0 0 0.0228 0 0 0 0 0 0.015 0 0 0 0 -0.0067 0.0925 -0.0113 0 0 0 0 0.0247 0 0 0 0 0 0.0221 0 0 0 0 0 0.018 0 0 0 0 -0.0066 0.0935 -0.0272 0 0 0 0 0.0163 0 0 0 0 0 0.0171 0 0 0 0 0 0.018 0 0 0 0 5.96046e-06 31.8366 0 24.7636 -2.98821e-06 1.07219 -14.6953 0 -7.15256e-05 54.7488 2.94885 -12.4848 -21.009 1.19209e-05 0 -1.74135e-05 1.02453e-05 71.7274 -18.9033 0 0 19.3145 0.985034 30.2847 -0.0062 0.0497 0.0339 0 0 0 0 0.0215 0 0 0 0 0 0.022 0 0 0 0 0 0.017 0 0 0 0 0.0068 0.0873 0.0207 0 0 0 0 0.0267 0 0 0 0 0 0.0213 0 0 0 0 0 0.018 0 0 0 0 0.0067 0.0922 0.0055 0 0 0 0 0.0266 0 0 0 0 0 0.0228 0 0 0 0 0 0.015 0 0 0 0 0.0067 0.0925 -0.0113 0 0 0 0 0.0247 0 0 0 0 0 0.0221 0 0 0 0 0 0.018 0 0 0 0 0.0066 0.0935 -0.0272 0 0 0 0 0.0163 0 0 0 0 0 0.0171 0 0 0 0 0 0.018 0 0 0 0 5.96046e-06 31.8366 0 6.12418 2.6169 -0.280682 2.38419e-05 22.678 0 9.71168e-06 -9.8184e-06 0 
